<svg xmlns="http://www.w3.org/2000/svg" xmlns:xlink="http://www.w3.org/1999/xlink" version="1.1" id="Layer_1" x="0px" y="0px" style="enable-background:new 0 0 425.2 425.2;" xml:space="preserve" viewBox="37.3 148.1 367.7 120.6">
<style type="text/css">
	.st0{fill:#171773;}
</style>
<g>
	<g>
		<path class="st0" d="M153.2,184.8L153.2,184.8c-4.8-11.8-13-21-22.9-27.2c-9.9-6.2-21.5-9.5-33.1-9.5c-8.1,0-16.3,1.6-23.9,4.9    c-7.6,3.3-14.7,8.3-20.6,15v0c-10.6,11.6-15.4,25.6-15.4,39.4c0,15.6,6.1,30.9,16.5,42.3c5.2,5.7,11.6,10.5,18.9,13.8    c7.3,3.3,15.4,5.2,24.3,5.2c0.2,0,0.4,0,0.6,0c0.4,0,0.7,0,1.1,0c16.8,0,31.7-7.4,42.3-18.7c10.6-11.3,17.1-26.5,17.1-42.2    C158.1,200.1,156.6,192.3,153.2,184.8z M52.7,243.2c-7.4-9.7-11.9-21.9-11.9-34.5l0,0l0,0c0-0.2,0-0.4,0-0.5    c0-12.6,4.4-24.8,11.9-34.6c7.4-9.8,17.9-17.1,29.9-20c2.3-0.6,4.7-0.8,7.1-0.8c5.1,0,10.1,1.3,14.5,3.9c0.1,0.1,0.3,0.2,0.4,0.2    c6.2,3.7,11.2,8.8,15.2,14.8c4,6,6.8,12.8,8.5,19.7l0,0c1.4,5.5,2,11.3,2,17c0,5.7-0.7,11.3-2,16.9c-1.7,7-4.5,13.8-8.5,19.8    c-4,6-9.1,11.2-15.2,14.9c-0.1,0.1-0.3,0.2-0.4,0.2c-4.4,2.6-9.4,3.9-14.5,3.9c-2.3,0-4.7-0.3-7-0.8    C70.6,260.2,60.1,252.9,52.7,243.2z"/>
		<path class="st0" d="M74.3,193.2C74.3,193.2,74.3,193.2,74.3,193.2C74.3,193.2,74.3,193.2,74.3,193.2L74.3,193.2    c1,2.4,2.6,4.3,4.6,5.5c2,1.3,4.3,1.9,6.7,1.9c3.3,0,6.6-1.3,8.9-4l0,0c0,0,0,0,0,0c0,0,0,0,0,0l0,0c2.1-2.3,3.1-5.2,3.1-7.9    c0-3.1-1.2-6.2-3.3-8.5c-2.1-2.3-5.1-3.8-8.7-3.8l-0.1,0c-0.1,0-0.1,0-0.2,0c-3.4,0-6.4,1.5-8.5,3.8c-2.1,2.3-3.4,5.3-3.4,8.5    C73.3,190.1,73.6,191.7,74.3,193.2L74.3,193.2z M87.1,178.4c0.4,0,0.8,0,1.2,0.1c2.2,0.5,4.1,1.8,5.4,3.6c1.4,1.8,2.2,4,2.2,6.3v0    l0,0.1c0,2.3-0.8,4.5-2.2,6.3c-1.4,1.8-3.3,3.1-5.4,3.6c-0.4,0.1-0.8,0.1-1.2,0.1c-0.9,0-1.7-0.2-2.5-0.7l0,0l-0.1,0    c-1.1-0.7-2-1.6-2.7-2.7c-0.7-1.1-1.2-2.3-1.6-3.6c-0.2-1-0.4-2.1-0.4-3.1c0-1,0.1-2.1,0.4-3.1c0.3-1.3,0.8-2.5,1.6-3.6    c0.7-1.1,1.6-2,2.7-2.7l0.1,0l0,0C85.3,178.6,86.2,178.4,87.1,178.4z"/>
		<path class="st0" d="M94.5,236.5L94.5,236.5C94.6,236.5,94.6,236.5,94.5,236.5C94.6,236.4,94.6,236.4,94.5,236.5L94.5,236.5    c2.1-2.3,3.1-5.2,3.1-7.9c0-3.1-1.2-6.2-3.3-8.5c-2.1-2.3-5.1-3.8-8.7-3.8l-0.1,0c-0.1,0-0.1,0-0.2,0c-3.4,0-6.4,1.5-8.5,3.8    c-2.1,2.3-3.4,5.3-3.4,8.5c0,1.5,0.3,3.1,1,4.6l0,0c0,0,0,0,0,0c0,0,0,0,0,0l0,0c1,2.4,2.6,4.2,4.6,5.5c2,1.3,4.3,1.9,6.7,1.9    C88.9,240.5,92.2,239.2,94.5,236.5z M84.6,237.8L84.6,237.8c-1.2-0.7-2.1-1.6-2.8-2.7c-0.7-1.1-1.2-2.3-1.6-3.6    c-0.2-1-0.4-2.1-0.4-3.1c0-1,0.1-2.1,0.4-3.1c0.3-1.3,0.8-2.5,1.6-3.6c0.7-1.1,1.6-2,2.7-2.7l0.1,0l0,0c0.8-0.4,1.6-0.7,2.5-0.7    c0.4,0,0.8,0,1.2,0.1c2.2,0.5,4.1,1.8,5.4,3.6c1.4,1.8,2.2,4,2.2,6.3v0l0,0.1c0,2.3-0.8,4.5-2.2,6.3c-1.4,1.8-3.3,3.1-5.4,3.6    c-0.4,0.1-0.8,0.1-1.2,0.1C86.2,238.5,85.3,238.2,84.6,237.8L84.6,237.8z"/>
		<path class="st0" d="M96.7,200c-2.1,2.3-3.4,5.3-3.4,8.5c0,1.5,0.3,3.1,1,4.6l0,0c0,0,0,0,0,0c0,0,0,0,0,0l0,0    c1,2.4,2.6,4.2,4.6,5.5c2,1.3,4.3,1.9,6.7,1.9c3.3,0,6.6-1.3,8.9-4l0,0c0,0,0,0,0,0c0,0,0,0,0,0l0,0c2.1-2.3,3.1-5.2,3.1-7.9    c0-3.1-1.2-6.2-3.3-8.5c-2.1-2.3-5.1-3.8-8.7-3.8l-0.1,0c-0.1,0-0.1,0-0.2,0C101.8,196.3,98.8,197.8,96.7,200z M107,198.3    c0.4,0,0.8,0,1.2,0.1c2.2,0.5,4.1,1.8,5.4,3.6c1.4,1.8,2.2,4,2.2,6.3v0l0,0.1c0,2.3-0.8,4.5-2.2,6.3c-1.4,1.8-3.3,3.1-5.4,3.6    c-0.4,0.1-0.8,0.1-1.2,0.1c-0.9,0-1.7-0.2-2.5-0.7l0,0l-0.1,0c-1.1-0.7-2-1.6-2.7-2.7c-0.7-1.1-1.2-2.3-1.6-3.6    c-0.2-1-0.4-2.1-0.4-3.1c0-1,0.1-2.1,0.4-3.1c0.3-1.3,0.8-2.5,1.6-3.6c0.7-1.1,1.6-2,2.7-2.7l0.1,0    C105.2,198.5,106.1,198.3,107,198.3z"/>
		<path class="st0" d="M74.6,216.5L74.6,216.5C74.6,216.5,74.6,216.5,74.6,216.5C74.6,216.5,74.6,216.5,74.6,216.5L74.6,216.5    c2.1-2.3,3.1-5.2,3.1-7.9c0-3.1-1.2-6.2-3.3-8.5c-2.1-2.3-5.1-3.8-8.7-3.8l-0.1,0c-0.1,0-0.1,0-0.2,0c-3.4,0-6.4,1.5-8.5,3.8    c-2.1,2.3-3.4,5.3-3.4,8.5c0,1.5,0.3,3.1,1,4.6l0,0c0,0,0,0,0,0c0,0,0,0,0,0l0,0c1,2.4,2.6,4.2,4.6,5.5c2,1.3,4.3,1.9,6.7,1.9    C68.9,220.5,72.3,219.3,74.6,216.5z M64.6,217.9L64.6,217.9L64.6,217.9c-1.2-0.7-2.1-1.6-2.8-2.7c-0.7-1.1-1.2-2.3-1.6-3.6    c-0.2-1-0.4-2.1-0.4-3.1c0-1,0.1-2.1,0.4-3.1c0.3-1.3,0.8-2.5,1.6-3.6c0.7-1.1,1.6-2,2.7-2.7l0.1,0l0,0c0.8-0.4,1.6-0.7,2.5-0.7    c0.4,0,0.8,0,1.2,0.1c2.2,0.5,4.1,1.8,5.4,3.6c1.4,1.8,2.2,4,2.2,6.3v0l0,0.1c0,2.3-0.8,4.5-2.2,6.3c-1.4,1.8-3.3,3.1-5.4,3.6    c-0.4,0.1-0.8,0.1-1.2,0.1C66.3,218.5,65.4,218.3,64.6,217.9L64.6,217.9z"/>
	</g>
	<g>
		<g>
			<path class="st0" d="M191.2,196.1c-1,0-1.8,0.3-2.4,0.9c-0.6,0.6-0.9,1.4-0.9,2.5v36.2c0,1,0.3,1.9,0.9,2.5     c0.6,0.6,1.4,0.9,2.4,0.9c1,0,1.8-0.3,2.4-0.9c0.6-0.6,0.9-1.4,0.9-2.5v-36.2c0-1-0.3-1.9-0.9-2.5     C193,196.4,192.2,196.1,191.2,196.1z"/>
			<path class="st0" d="M191.1,179.2c-1.2,0-2.3,0.4-3.2,1.3c-0.9,0.8-1.4,1.9-1.4,3.2c0,1.3,0.4,2.3,1.3,3.3c0.9,0.9,2,1.4,3.2,1.4     c1.3,0,2.3-0.5,3.2-1.4c0.9-0.9,1.3-2,1.3-3.3c0-1.3-0.5-2.4-1.4-3.2C193.4,179.6,192.3,179.2,191.1,179.2z"/>
			<path class="st0" d="M239.1,198.5c-3.1-1.9-6.7-2.9-10.7-2.9c-3.4,0-6.5,0.7-9.3,2.2c-2.8,1.4-5,3.3-6.7,5.7v-22.4     c0-1-0.3-1.9-0.9-2.5c-0.6-0.6-1.4-0.9-2.4-0.9c-1,0-1.9,0.3-2.5,0.9c-0.6,0.6-0.9,1.4-0.9,2.5v36.6c0.1,4.1,1,7.8,2.9,11     c1.9,3.3,4.5,5.9,7.7,7.8c3.2,1.9,6.9,2.9,11,2.9c4.2,0,7.9-1,11.2-2.9c3.3-1.9,5.9-4.5,7.8-7.8c1.9-3.3,2.9-7,2.9-11.2     c0-4.1-0.9-7.8-2.7-11.1S242.3,200.4,239.1,198.5z M240.8,225.6c-1.3,2.4-3.2,4.3-5.5,5.7c-2.3,1.4-5,2.1-7.9,2.1     c-2.8,0-5.4-0.7-7.7-2.1c-2.3-1.4-4.1-3.3-5.5-5.7c-1.3-2.4-2-5.1-2-8.1c0-3,0.7-5.7,2-8.1c1.3-2.4,3.1-4.3,5.5-5.7     c2.3-1.4,4.9-2.1,7.7-2.1c2.9,0,5.6,0.7,7.9,2.1c2.3,1.4,4.2,3.3,5.5,5.7c1.3,2.4,2,5.1,2,8.1     C242.8,220.5,242.1,223.2,240.8,225.6z"/>
			<path class="st0" d="M287.9,198.5c-3.2-1.9-7-2.8-11.1-2.8c-4.2,0-8,0.9-11.3,2.8c-3.3,1.9-5.8,4.5-7.7,7.8     c-1.9,3.3-2.8,7.1-2.8,11.3c0,4.2,0.9,7.9,2.8,11.2c1.9,3.3,4.5,5.9,7.7,7.8c3.3,1.9,7,2.8,11.3,2.8c4.2,0,7.9-0.9,11.2-2.8     c3.3-1.9,5.8-4.5,7.7-7.8c1.9-3.3,2.8-7,2.8-11.2c-0.1-4.2-1-8-2.9-11.3C293.7,203,291.2,200.4,287.9,198.5z M290,225.7     c-1.3,2.4-3.1,4.3-5.4,5.6c-2.3,1.4-4.9,2.1-7.8,2.1c-2.9,0-5.6-0.7-7.9-2.1c-2.3-1.4-4.2-3.3-5.5-5.6c-1.3-2.4-2-5.1-2-8.1     c0-3,0.7-5.8,2-8.2c1.3-2.4,3.2-4.3,5.5-5.7c2.3-1.4,5-2.1,7.9-2.1c2.9,0,5.5,0.7,7.8,2.1c2.3,1.4,4.1,3.3,5.4,5.7     c1.3,2.4,2,5.1,2,8.2C292,220.6,291.3,223.3,290,225.7z"/>
			<path class="st0" d="M317.9,232.5h-2c-1.4,0-2.5-0.7-3.3-2.1c-0.9-1.4-1.3-3.2-1.3-5.3V181c0-1-0.3-1.8-0.9-2.4     c-0.6-0.6-1.4-0.9-2.3-0.9c-1,0-1.8,0.3-2.4,0.9c-0.6,0.6-0.9,1.4-0.9,2.4v44.1c0,2.7,0.5,5.1,1.4,7.2c0.9,2.1,2.2,3.7,3.9,4.9     c1.7,1.2,3.6,1.8,5.8,1.8h0.7c1.2,0,2.2-0.3,2.9-0.9c0.8-0.6,1.1-1.4,1.1-2.4c0-0.9-0.3-1.7-0.8-2.3     C319.4,232.8,318.7,232.5,317.9,232.5z"/>
			<path class="st0" d="M353.2,198.5c-3.3-1.9-6.9-2.9-11-2.9c-4.1,0-7.8,1-11.1,2.9c-3.3,1.9-5.9,4.5-7.8,7.8     c-1.9,3.3-2.9,7-2.9,11.2c0,4.1,0.9,7.8,2.7,11.1c1.8,3.3,4.3,5.9,7.5,7.8c3.1,1.9,6.7,2.9,10.7,2.9c3.8,0,7.2-0.9,10.2-2.7     c2.2-1.3,4.1-3.1,5.7-5.1v4.1c0,1,0.3,1.8,1,2.4c0.7,0.6,1.5,0.9,2.4,0.9c1,0,1.8-0.3,2.4-0.9c0.6-0.6,0.9-1.4,0.9-2.4v-18.1     c-0.1-4.2-1-7.9-2.9-11.2C359.1,203,356.5,200.4,353.2,198.5z M355.4,225.6c-1.3,2.4-3.1,4.3-5.4,5.7c-2.3,1.4-4.9,2.1-7.8,2.1     c-2.9,0-5.5-0.7-7.8-2.1c-2.3-1.4-4.2-3.3-5.5-5.7c-1.4-2.4-2-5.1-2-8.1c0-3,0.7-5.7,2-8.1c1.4-2.4,3.2-4.3,5.5-5.7     c2.3-1.4,4.9-2.1,7.8-2.1c2.9,0,5.5,0.7,7.8,2.1c2.3,1.4,4.1,3.3,5.4,5.7c1.3,2.4,2,5.1,2,8.1     C357.4,220.5,356.8,223.2,355.4,225.6z"/>
			<path class="st0" d="M404.2,234.3l-16-19.7l15.3-13.7c0.7-0.6,1-1.3,1.1-2.1c0.1-0.8-0.2-1.5-0.9-2.2c-0.6-0.7-1.3-1-2.1-1.1     c-0.8-0.1-1.5,0.2-2.2,0.9l-21.2,19.1v-34.6c0-0.9-0.3-1.7-0.9-2.3c-0.6-0.6-1.4-0.9-2.4-0.9c-0.9,0-1.7,0.3-2.3,0.9     c-0.6,0.6-0.9,1.4-0.9,2.3v54.8c0,0.9,0.3,1.7,0.9,2.3c0.6,0.6,1.4,0.9,2.3,0.9c1,0,1.8-0.3,2.4-0.9c0.6-0.6,0.9-1.4,0.9-2.3     v-12.2l5.3-4.7l15.8,19.4c0.6,0.7,1.3,1.1,2.1,1.2c0.8,0.1,1.6-0.2,2.3-0.8c0.8-0.6,1.2-1.3,1.3-2.1     C405,235.7,404.8,234.9,404.2,234.3z"/>
		</g>
	</g>
</g>
</svg>