<svg width="25" height="24" viewBox="0 0 25 24" fill="none" xmlns="http://www.w3.org/2000/svg">
<path fill-rule="evenodd" clip-rule="evenodd" d="M20.1 6.467L18.4 4.2C17.833 3.445 16.944 3 16 3H9C8.056 3 7.167 3.445 6.6 4.2L4.9 6.467C4.64 6.813 4.5 7.234 4.5 7.667V18C4.5 19.657 5.843 21 7.5 21H17.5C19.157 21 20.5 19.657 20.5 18V7.667C20.5 7.234 20.36 6.813 20.1 6.467Z" stroke="#323232" stroke-width="1.5" stroke-linecap="round" stroke-linejoin="round"/>
<path d="M15.5 10C15.5 11.657 14.157 13 12.5 13C10.843 13 9.5 11.657 9.5 10" stroke="#323232" stroke-width="1.5" stroke-linecap="round" stroke-linejoin="round"/>
<path d="M20.3801 7H4.62012" stroke="#323232" stroke-width="1.5" stroke-linecap="round" stroke-linejoin="round"/>
</svg>
