<svg xmlns="http://www.w3.org/2000/svg" width="600" height="400" viewBox="0 0 600 400"><rect width="100%" height="100%" fill="#DDDDDD"/><path fill="#999999" d="M171.665 217.54q.98 0 1.74.75l4.71 5.12q-3.91 4.85-9.63 7.43-5.72 2.58-13.73 2.58-7.16 0-12.88-2.45-5.72-2.44-9.77-6.8-4.05-4.36-6.21-10.42-2.16-6.05-2.16-13.21 0-7.26 2.32-13.29 2.31-6.03 6.52-10.39 4.2-4.36 10.03-6.78 5.83-2.43 12.91-2.43 7.03 0 12.48 2.32 5.45 2.31 9.28 6.05l-4.01 5.56q-.35.53-.91.93t-1.53.4q-.67 0-1.38-.37-.72-.38-1.56-.94-.85-.55-1.96-1.22-1.11-.67-2.58-1.23-1.47-.55-3.4-.93-1.94-.38-4.48-.38-4.31 0-7.9 1.54-3.58 1.53-6.16 4.45-2.58 2.91-4 7.12-1.43 4.2-1.43 9.59 0 5.43 1.54 9.65 1.53 4.23 4.16 7.12 2.62 2.9 6.18 4.43 3.56 1.54 7.66 1.54 2.44 0 4.43-.27 1.98-.27 3.64-.85 1.67-.58 3.16-1.49 1.49-.91 2.96-2.24.45-.4.94-.65.49-.24 1.02-.24Zm33.15-31.2q5.08 0 9.24 1.65 4.16 1.64 7.12 4.67 2.96 3.03 4.56 7.39 1.6 4.36 1.6 9.74 0 5.43-1.6 9.79-1.6 4.36-4.56 7.43-2.96 3.07-7.12 4.72t-9.24 1.65q-5.11 0-9.3-1.65-4.18-1.65-7.14-4.72t-4.58-7.43q-1.63-4.36-1.63-9.79 0-5.38 1.63-9.74 1.62-4.36 4.58-7.39 2.96-3.03 7.14-4.67 4.19-1.65 9.3-1.65Zm0 38.58q5.7 0 8.44-3.82 2.73-3.83 2.73-11.22 0-7.39-2.73-11.26-2.74-3.87-8.44-3.87-5.78 0-8.56 3.9-2.78 3.89-2.78 11.23t2.78 11.19q2.78 3.85 8.56 3.85Zm59.59-5.74v-20.47q-1.87-2.27-4.07-3.2-2.21-.94-4.74-.94-2.49 0-4.5.94-2 .93-3.42 2.82-1.43 1.9-2.18 4.81-.76 2.91-.76 6.87 0 4.01.65 6.79.64 2.78 1.84 4.54 1.2 1.76 2.94 2.54 1.73.78 3.87.78 3.43 0 5.83-1.43 2.4-1.42 4.54-4.05Zm0-52.6h10.99v66.13h-6.72q-2.18 0-2.76-2l-.93-4.41q-2.76 3.16-6.34 5.12-3.59 1.96-8.35 1.96-3.74 0-6.85-1.56-3.12-1.56-5.36-4.52-2.25-2.96-3.47-7.32-1.23-4.36-1.23-9.97 0-5.07 1.38-9.43 1.38-4.36 3.96-7.56 2.58-3.21 6.19-5.01 3.6-1.8 8.1-1.8 3.82 0 6.54 1.2 2.71 1.2 4.85 3.25v-24.08Zm30.53 38.05h20.73q0-2.14-.6-4.03-.6-1.89-1.8-3.31-1.2-1.43-3.05-2.25-1.85-.82-4.29-.82-4.76 0-7.5 2.71-2.74 2.72-3.49 7.7Zm28.03 6.63h-28.26q.27 3.52 1.25 6.08.98 2.55 2.58 4.22t3.81 2.49q2.2.83 4.87.83t4.6-.63q1.94-.62 3.39-1.37 1.44-.76 2.53-1.38 1.09-.63 2.12-.63 1.38 0 2.04 1.03l3.16 4q-1.82 2.14-4.09 3.58-2.27 1.45-4.74 2.32-2.47.87-5.03 1.22-2.56.36-4.96.36-4.76 0-8.86-1.58-4.09-1.58-7.12-4.67-3.02-3.1-4.76-7.66-1.73-4.56-1.73-10.57 0-4.67 1.51-8.79 1.51-4.11 4.34-7.16 2.82-3.05 6.9-4.83 4.07-1.78 9.18-1.78 4.32 0 7.97 1.38 3.65 1.38 6.27 4.03 2.63 2.65 4.12 6.49 1.49 3.85 1.49 8.79 0 2.5-.53 3.36-.54.87-2.05.87Zm63.64-42.9-23.46 39.43v24.92h-11.92v-24.92l-23.45-39.43h10.54q1.56 0 2.47.76.92.76 1.54 1.91l11.75 21.5q1.02 1.91 1.8 3.6.78 1.69 1.4 3.38.58-1.69 1.34-3.38.75-1.69 1.73-3.6l11.7-21.5q.49-.98 1.47-1.82.98-.85 2.49-.85h10.6Zm28.97 52.56v-7.7q-4.77.22-8.01.82-3.25.6-5.21 1.54-1.96.93-2.8 2.18-.85 1.24-.85 2.71 0 2.9 1.71 4.14 1.72 1.25 4.48 1.25 3.38 0 5.85-1.23 2.47-1.22 4.83-3.71Zm-23.23-23.99-1.96-3.51q7.87-7.21 18.96-7.21 4 0 7.16 1.31t5.34 3.65q2.18 2.34 3.32 5.58 1.13 3.25 1.13 7.12v28.84h-4.98q-1.56 0-2.41-.47-.84-.46-1.33-1.89l-.98-3.29q-1.74 1.56-3.38 2.74-1.65 1.17-3.43 1.98-1.78.8-3.8 1.22-2.03.42-4.48.42-2.89 0-5.34-.78-2.44-.78-4.22-2.33-1.78-1.56-2.76-3.87-.98-2.32-.98-5.39 0-1.73.58-3.45.57-1.71 1.89-3.27 1.31-1.56 3.4-2.94t5.14-2.4q3.05-1.02 7.1-1.67 4.05-.64 9.26-.78v-2.67q0-4.58-1.96-6.78t-5.65-2.2q-2.67 0-4.43.62-1.76.62-3.09 1.4-1.34.78-2.43 1.4-1.09.62-2.43.62-1.15 0-1.95-.6t-1.29-1.4Zm72.93 22.25v-20.47q-1.87-2.27-4.07-3.2-2.2-.94-4.74-.94-2.49 0-4.49.94-2.01.93-3.43 2.82-1.42 1.9-2.18 4.81-.76 2.91-.76 6.87 0 4.01.65 6.79.64 2.78 1.84 4.54 1.21 1.76 2.94 2.54 1.74.78 3.87.78 3.43 0 5.83-1.43 2.41-1.42 4.54-4.05Zm0-52.6h10.99v66.13h-6.72q-2.18 0-2.76-2l-.93-4.41q-2.76 3.16-6.34 5.12t-8.34 1.96q-3.74 0-6.86-1.56-3.11-1.56-5.36-4.52-2.25-2.96-3.47-7.32-1.22-4.36-1.22-9.97 0-5.07 1.37-9.43 1.38-4.36 3.97-7.56 2.58-3.21 6.18-5.01 3.61-1.8 8.1-1.8 3.83 0 6.54 1.2 2.72 1.2 4.85 3.25v-24.08Z"/></svg>