<?xml version="1.0" encoding="UTF-8"?> <svg xmlns="http://www.w3.org/2000/svg" version="1.2" viewBox="0 0 426 139" width="500" height="200"><title>09 (1)-svg</title><style> .s0 { fill: #171773 } </style><g id="Layer"><g id="Layer"><path id="Layer" fill-rule="evenodd" class="s0" d="m389.6 69.8c0 15.7-6.5 30.9-17.1 42.2-10.6 11.3-25.5 18.7-42.3 18.7-0.4 0-0.7 0-1.1 0q-0.3 0-0.6 0c-8.9 0-17-1.9-24.3-5.2-7.3-3.3-13.7-8.1-18.9-13.8-10.4-11.4-16.5-26.7-16.5-42.3 0-13.8 4.8-27.8 15.4-39.4 5.9-6.7 13-11.7 20.6-15 7.6-3.3 15.8-4.9 23.9-4.9 11.6 0 23.2 3.3 33.1 9.5 9.9 6.2 18.1 15.4 22.9 27.2 3.4 7.5 4.9 15.3 4.9 23zm-75.4 55.5c2.3 0.5 4.7 0.8 7 0.8 5.1 0 10.1-1.3 14.5-3.9 0.1 0 0.3-0.1 0.4-0.2 6.1-3.7 11.2-8.9 15.2-14.9 4-6 6.8-12.8 8.5-19.8 1.3-5.6 2-11.2 2-16.9 0-5.7-0.6-11.5-2-17-1.7-6.9-4.5-13.7-8.5-19.7-4-6-9-11.1-15.2-14.8-0.1 0-0.3-0.1-0.4-0.2-4.4-2.6-9.4-3.9-14.5-3.9-2.4 0-4.8 0.2-7.1 0.8-12 2.9-22.5 10.2-29.9 20-7.5 9.8-11.9 22-11.9 34.6 0 0.1 0 0.3 0 0.5 0 12.6 4.5 24.8 11.9 34.5 7.4 9.7 17.9 17 30 20.1z"></path><path id="Layer" fill-rule="evenodd" class="s0" d="m304.9 50.7c0-3.2 1.3-6.2 3.4-8.5 2.1-2.3 5.1-3.8 8.5-3.8q0.1 0 0.3 0c3.6 0 6.6 1.5 8.7 3.8 2.1 2.3 3.3 5.4 3.3 8.5 0 2.7-1 5.6-3.1 7.9-2.3 2.7-5.6 4-8.9 4-2.4 0-4.7-0.6-6.7-1.9-2-1.2-3.6-3.1-4.6-5.5-0.7-1.5-1-3.1-0.9-4.5zm11.1-9.7h-0.1q-1.6 1.1-2.7 2.7c-0.8 1.1-1.3 2.3-1.6 3.6-0.3 1-0.4 2.1-0.4 3.1 0 1 0.2 2.1 0.4 3.1 0.4 1.3 0.9 2.5 1.6 3.6q1.1 1.7 2.7 2.7h0.1c0.8 0.5 1.6 0.7 2.5 0.7 0.4 0 0.8 0 1.2-0.1 2.1-0.5 4-1.8 5.4-3.6 1.4-1.8 2.2-4 2.2-6.3v-0.1c0-2.3-0.8-4.5-2.2-6.3-1.3-1.8-3.2-3.1-5.4-3.6-0.4-0.1-0.8-0.1-1.2-0.1-0.8 0-1.7 0.2-2.5 0.6z"></path><path id="Layer" fill-rule="evenodd" class="s0" d="m317.2 102.6c-2.4 0-4.7-0.6-6.7-1.9-2-1.3-3.6-3.1-4.6-5.5-0.7-1.5-1-3.1-1-4.6 0-3.2 1.3-6.2 3.4-8.5 2.1-2.3 5.1-3.8 8.5-3.8q0.1 0 0.3 0c3.6 0 6.6 1.5 8.7 3.8 2.1 2.3 3.3 5.4 3.3 8.5 0 2.7-1 5.6-3.1 7.9q0-0.1 0 0c-2.3 2.7-5.7 4-8.8 4.1zm1.3-2.2c0.4 0 0.8 0 1.2-0.1 2.1-0.5 4-1.8 5.4-3.6 1.4-1.8 2.2-4 2.2-6.3v-0.1c0-2.3-0.8-4.5-2.2-6.3-1.3-1.8-3.2-3.1-5.4-3.6-0.4-0.1-0.8-0.1-1.2-0.1-0.9 0-1.7 0.3-2.5 0.7h-0.1q-1.6 1.1-2.7 2.7c-0.8 1.1-1.3 2.3-1.6 3.6-0.3 1-0.4 2.1-0.4 3.1 0 1 0.2 2.1 0.4 3.1 0.4 1.3 0.9 2.5 1.6 3.6 0.7 1.1 1.6 2 2.8 2.7 0.8 0.4 1.7 0.7 2.5 0.6z"></path><path id="Layer" fill-rule="evenodd" class="s0" d="m336.8 58.3q0.1 0 0.3 0c3.6 0 6.6 1.5 8.7 3.8 2.1 2.3 3.3 5.4 3.3 8.5 0 2.7-1 5.6-3.1 7.9-2.3 2.7-5.6 4-8.9 4-2.4 0-4.7-0.6-6.7-1.9-2-1.3-3.6-3.1-4.6-5.5-0.7-1.5-1-3.1-1-4.6 0-3.2 1.3-6.2 3.4-8.5 2.1-2.2 5.1-3.7 8.6-3.7zm-0.8 2.6h-0.1q-1.7 1.1-2.7 2.7c-0.8 1.1-1.3 2.3-1.6 3.6-0.3 1-0.4 2.1-0.4 3.1 0 1 0.2 2.1 0.4 3.1 0.4 1.3 0.9 2.5 1.6 3.6q1 1.7 2.7 2.7h0.1c0.8 0.5 1.6 0.7 2.5 0.7 0.4 0 0.8 0 1.2-0.1 2.1-0.5 4-1.8 5.4-3.6 1.4-1.8 2.2-4 2.2-6.3v-0.1c0-2.3-0.8-4.5-2.2-6.3-1.3-1.8-3.2-3.1-5.4-3.6-0.4-0.1-0.8-0.1-1.2-0.1-0.9 0-1.8 0.2-2.5 0.6z"></path><path id="Layer" fill-rule="evenodd" class="s0" d="m297.3 82.6c-2.4 0-4.7-0.6-6.7-1.9-2-1.3-3.6-3.1-4.6-5.5-0.7-1.5-1-3.1-1-4.6 0-3.2 1.3-6.2 3.4-8.5 2.1-2.3 5.1-3.8 8.5-3.8q0.1 0 0.3 0c3.6 0 6.6 1.5 8.7 3.8 2.1 2.3 3.3 5.4 3.3 8.5 0 2.7-1 5.6-3.1 7.9-2.4 2.8-5.7 4-8.8 4.1zm1.3-2.1c0.4 0 0.8 0 1.2-0.1 2.1-0.5 4-1.8 5.4-3.6 1.4-1.8 2.2-4 2.2-6.3v-0.1c0-2.3-0.8-4.5-2.2-6.3-1.3-1.8-3.2-3.1-5.4-3.6-0.4-0.1-0.8-0.1-1.2-0.1-0.9 0-1.7 0.3-2.5 0.7h-0.1q-1.6 1.1-2.7 2.7c-0.8 1.1-1.3 2.3-1.6 3.6-0.3 1-0.4 2.1-0.4 3.1 0 1 0.2 2.1 0.4 3.1 0.4 1.3 0.9 2.5 1.6 3.6 0.7 1.1 1.6 2 2.8 2.7 0.8 0.4 1.6 0.6 2.5 0.6z"></path></g><g id="Layer"><path id="Layer" class="s0" d="m239.1 86.3v-33.9c0-1.8-1.4-3.2-3.2-3.2-1.8 0-3.2 1.4-3.2 3.2v33.9c0 1.8 1.4 3.2 3.2 3.2 1.8 0 3.2-1.4 3.2-3.2z"></path><path id="Layer" class="s0" d="m237.9 39.5h-2c-7.6 0-13.9 6.2-13.9 13.9 0 1.8 1.4 3.2 3.2 3.2 1.8 0 3.2-1.4 3.2-3.2 0-4.1 3.4-7.5 7.5-7.5h2c1.8 0 3.2-1.4 3.2-3.2 0-1.8-1.4-3.2-3.2-3.2z"></path><path id="Layer" class="s0" d="m202.6 100.9h13.6c6.5 0 11.8-5.3 11.8-11.8v-3.9c0-4.3-3.5-7.8-7.8-7.8h-13.2c-0.4 0-0.7-0.1-1-0.4-0.3-0.3-0.4-0.6-0.4-1v-4c0-3 2.4-5.4 5.4-5.4h7.5c1.8 0 3.2-1.4 3.2-3.2 0-1.8-1.4-3.2-3.2-3.2h-7.5c-6.5 0-11.8 5.3-11.8 11.8v3.9c0 2.1 0.8 4 2.3 5.5 1.5 1.5 3.4 2.3 5.5 2.3h13.2c0.8 0 1.4 0.6 1.4 1.4v3.9c0 3-2.4 5.4-5.4 5.4h-13.6c-4.6 0-8.3-3.7-8.3-8.3v-11.1c0-1.8-1.4-3.2-3.2-3.2-1.8 0-3.2 1.4-3.2 3.2v11.2c0 8.1 6.6 14.7 14.7 14.7z"></path><path id="Layer" class="s0" d="m123.4 49.2c-1.8 0-3.2 1.4-3.2 3.2v22.4c0 4.4-3.6 8-8 8-4.4 0-8-3.6-8-7.9q0-0.2 0-0.3c0-7.9-6.4-14.3-14.3-14.3h-11.1l9.9-8.9c0.6-0.6 1-1.4 1-2.2 0-0.9-0.2-1.7-0.8-2.3-0.6-0.6-1.4-1-2.2-1.1-0.9 0-1.7 0.3-2.3 0.8l-16 14.5c-1 0.9-1.3 2.3-0.8 3.5 0.5 1.2 1.7 2 3 2h19.5c4.4 0 7.9 3.5 7.9 7.8q0 0.1 0 0.3v0.2c0 4.5-3.6 8.1-8.1 8.1h-22.7c-4.5 0-8.1-3.6-8.1-8.1v-11.6c0-1.8-1.4-3.2-3.2-3.2-1.8 0-3.2 1.4-3.2 3.2v11.7c0 8 6.5 14.5 14.5 14.5h22.5c4.4 0 8.6-2.1 11.4-5.5 2.7 3.3 6.8 5.3 11.1 5.3 7.9 0 14.4-6.5 14.4-14.4v-22.4c0-1.8-1.4-3.3-3.2-3.3z"></path><path id="Layer" fill-rule="evenodd" class="s0" d="m183.2 63.3v11.6c0 8-6.5 14.5-14.5 14.5h-8.3c-1.6 6.7-7.5 11.4-14.3 11.4h-5.7c-1.8 0-3.2-1.4-3.2-3.2 0-1.8 1.4-3.2 3.2-3.2h5.7c3.3 0 6.3-2 7.6-5h-7.6c-8 0-14.6-6.6-14.6-14.6 0-8 6.5-14.6 14.6-14.6 8 0 14.6 6.5 14.6 14.6v8.3h8c4.5 0 8.1-3.6 8.1-8.1v-11.5c0-1.8 1.4-3.2 3.2-3.2 1.7 0 3.2 1.4 3.2 3zm-37.1 3.4c-4.5 0-8.2 3.7-8.2 8.2 0 4.5 3.7 8.2 8.2 8.2h8.2v-8.2c0-4.5-3.7-8.2-8.2-8.2z"></path><path id="Layer" class="s0" d="m178.5 94.8c-1.6-1.5-4-1.5-5.6 0-0.8 0.8-1.3 1.7-1.3 2.9 0 1.1 0.4 2.1 1.2 2.9 0.8 0.8 1.8 1.2 2.9 1.2 1.1 0 2.1-0.4 2.9-1.2 0.8-0.8 1.2-1.8 1.2-2.9 0-1.2-0.5-2.2-1.3-2.9z"></path></g></g></svg> 